<?xml version="1.0" encoding="UTF-8" standalone="no"?>
<!DOCTYPE svg PUBLIC "-//W3C//DTD SVG 1.1//EN"
 "http://www.w3.org/Graphics/SVG/1.1/DTD/svg11.dtd">
<!-- Generated by graphviz version 2.38.0 (20140413.2041)
 -->
<!-- Title: modules Pages: 1 -->
<svg width="1382pt" height="1363pt"
  xmlns="http://www.w3.org/2000/svg" xmlns:xlink="http://www.w3.org/1999/xlink">
<g id="graph0" class="graph" transform="scale(1.38889 1.38889) rotate(0) translate(4 977.09)">
<title>modules</title>
<polygon fill="white" stroke="none" points="-4,4 -4,-977.09 990.692,-977.09 990.692,4 -4,4"/>
<text text-anchor="middle" x="493.346" y="-7.8" font-family="Times,serif" font-size="14.00">modules</text>
<!-- component -->
<g id="node1" class="node"><title>component</title>
<polygon fill="none" stroke="black" points="107.078,-188.73 107.078,-209.73 174.078,-209.73 174.078,-188.73 107.078,-188.73"/>
<text text-anchor="start" x="110.078" y="-195.53" font-family="Times,serif" font-size="14.00">component</text>
<polygon fill="none" stroke="black" points="105.578,-188.23 105.578,-211.23 174.578,-211.23 174.578,-188.23 105.578,-188.23"/>
</g>
<!-- component/departure -->
<g id="node4" class="node"><title>component/departure</title>
<polygon fill="none" stroke="black" points="30.4884,-645.775 30.4884,-666.775 88.4884,-666.775 88.4884,-645.775 30.4884,-645.775"/>
<text text-anchor="start" x="33.4884" y="-652.575" font-family="Times,serif" font-size="14.00">departure</text>
<polygon fill="none" stroke="black" points="29.4884,-645.275 29.4884,-668.275 89.4884,-668.275 89.4884,-645.275 29.4884,-645.275"/>
</g>
<!-- component&#45;&gt;component/departure -->
<g id="edge14" class="edge"><title>component&#45;&gt;component/departure</title>
<path fill="none" stroke="black" stroke-width="3" d="M136.869,-217.929C124.46,-288.302 79.5626,-542.929 64.474,-628.5"/>
<polygon fill="black" stroke="black" stroke-width="3" points="60.9962,-628.069 62.7065,-638.525 67.8899,-629.284 60.9962,-628.069"/>
</g>
<!-- component/disruption -->
<g id="node5" class="node"><title>component/disruption</title>
<polygon fill="none" stroke="black" points="821.114,-188.73 821.114,-209.73 882.114,-209.73 882.114,-188.73 821.114,-188.73"/>
<text text-anchor="start" x="824.114" y="-195.53" font-family="Times,serif" font-size="14.00">disruption</text>
<polygon fill="none" stroke="black" points="819.614,-188.23 819.614,-211.23 882.614,-211.23 882.614,-188.23 819.614,-188.23"/>
</g>
<!-- component&#45;&gt;component/disruption -->
<g id="edge18" class="edge"><title>component&#45;&gt;component/disruption</title>
<path fill="none" stroke="black" stroke-width="3" d="M174.854,-199.73C293.23,-199.73 680.293,-199.73 809.041,-199.73"/>
<polygon fill="black" stroke="black" stroke-width="3" points="809.275,-203.23 819.275,-199.73 809.275,-196.23 809.275,-203.23"/>
</g>
<!-- component/documentation -->
<g id="node6" class="node"><title>component/documentation</title>
<polygon fill="none" stroke="black" points="371.006,-30 371.006,-51 459.006,-51 459.006,-30 371.006,-30"/>
<text text-anchor="start" x="374.006" y="-36.8" font-family="Times,serif" font-size="14.00">documentation</text>
<polygon fill="none" stroke="black" points="370.006,-29.5 370.006,-52.5 460.006,-52.5 460.006,-29.5 370.006,-29.5"/>
</g>
<!-- component&#45;&gt;component/documentation -->
<g id="edge21" class="edge"><title>component&#45;&gt;component/documentation</title>
<path fill="none" stroke="black" stroke-width="3" d="M171.348,-181.676C221.475,-152.735 319.773,-95.9828 374.965,-64.1182"/>
<polygon fill="black" stroke="black" stroke-width="3" points="376.855,-67.0681 383.766,-59.037 373.355,-61.0059 376.855,-67.0681"/>
</g>
<!-- component/favourites -->
<g id="node7" class="node"><title>component/favourites</title>
<polygon fill="none" stroke="black" points="1.5,-487.045 1.5,-508.045 62.5,-508.045 62.5,-487.045 1.5,-487.045"/>
<text text-anchor="start" x="4.5" y="-493.845" font-family="Times,serif" font-size="14.00">favourites</text>
<polygon fill="none" stroke="black" points="6.39488e-14,-486.545 6.39488e-14,-509.545 63,-509.545 63,-486.545 6.39488e-14,-486.545"/>
</g>
<!-- component&#45;&gt;component/favourites -->
<g id="edge22" class="edge"><title>component&#45;&gt;component/favourites</title>
<path fill="none" stroke="black" stroke-width="3" d="M133.449,-217.942C115.125,-268.286 63.6908,-409.602 41.6904,-470.047"/>
<polygon fill="black" stroke="black" stroke-width="3" points="38.3111,-469.099 38.1798,-479.693 44.889,-471.493 38.3111,-469.099"/>
</g>
<!-- component/front&#45;page -->
<g id="node8" class="node"><title>component/front&#45;page</title>
<polygon fill="none" stroke="black" points="109.078,-785.36 109.078,-806.36 172.078,-806.36 172.078,-785.36 109.078,-785.36"/>
<text text-anchor="start" x="112.078" y="-792.16" font-family="Times,serif" font-size="14.00">front&#45;page</text>
<polygon fill="none" stroke="black" points="107.578,-784.86 107.578,-807.86 172.578,-807.86 172.578,-784.86 107.578,-784.86"/>
</g>
<!-- component&#45;&gt;component/front&#45;page -->
<g id="edge27" class="edge"><title>component&#45;&gt;component/front&#45;page</title>
<path fill="none" stroke="black" stroke-width="3" d="M140.078,-217.912C140.078,-303.262 140.078,-664.364 140.078,-768.278"/>
<polygon fill="black" stroke="black" stroke-width="3" points="136.578,-768.32 140.078,-778.32 143.578,-768.32 136.578,-768.32"/>
</g>
<!-- component/icon -->
<g id="node9" class="node"><title>component/icon</title>
<polygon fill="none" stroke="black" points="248.548,-888.964 248.548,-909.964 278.548,-909.964 278.548,-888.964 248.548,-888.964"/>
<text text-anchor="start" x="251.548" y="-895.764" font-family="Times,serif" font-size="14.00">icon</text>
<polygon fill="none" stroke="black" points="247.548,-888.464 247.548,-911.464 279.548,-911.464 279.548,-888.464 247.548,-888.464"/>
</g>
<!-- component&#45;&gt;component/icon -->
<g id="edge31" class="edge"><title>component&#45;&gt;component/icon</title>
<path fill="none" stroke="black" stroke-width="3" d="M143.254,-217.743C160,-312.714 238.045,-755.331 258.584,-871.813"/>
<polygon fill="black" stroke="black" stroke-width="3" points="255.153,-872.508 260.336,-881.749 262.046,-871.293 255.153,-872.508"/>
</g>
<!-- component/itinerary -->
<g id="node10" class="node"><title>component/itinerary</title>
<polygon fill="none" stroke="black" points="905.703,-645.775 905.703,-666.775 957.703,-666.775 957.703,-645.775 905.703,-645.775"/>
<text text-anchor="start" x="908.703" y="-652.575" font-family="Times,serif" font-size="14.00">itinerary</text>
<polygon fill="none" stroke="black" points="904.703,-645.275 904.703,-668.275 958.703,-668.275 958.703,-645.275 904.703,-645.275"/>
</g>
<!-- component&#45;&gt;component/itinerary -->
<g id="edge32" class="edge"><title>component&#45;&gt;component/itinerary</title>
<path fill="none" stroke="black" stroke-width="3" d="M171.599,-217.929C297.268,-290.484 762.167,-558.894 895.652,-635.961"/>
<polygon fill="black" stroke="black" stroke-width="3" points="894.27,-639.205 904.68,-641.174 897.77,-633.143 894.27,-639.205"/>
</g>
<!-- component/map -->
<g id="node11" class="node"><title>component/map</title>
<polygon fill="none" stroke="black" points="944.692,-487.045 944.692,-508.045 975.692,-508.045 975.692,-487.045 944.692,-487.045"/>
<text text-anchor="start" x="947.692" y="-493.845" font-family="Times,serif" font-size="14.00">map</text>
<polygon fill="none" stroke="black" points="943.192,-486.545 943.192,-509.545 976.192,-509.545 976.192,-486.545 943.192,-486.545"/>
</g>
<!-- component&#45;&gt;component/map -->
<g id="edge37" class="edge"><title>component&#45;&gt;component/map</title>
<path fill="none" stroke="black" stroke-width="3" d="M174.772,-212.358C307.941,-260.827 785.723,-434.726 922.728,-484.592"/>
<polygon fill="black" stroke="black" stroke-width="3" points="921.769,-487.967 932.363,-488.098 924.163,-481.389 921.769,-487.967"/>
</g>
<!-- component/navigation -->
<g id="node12" class="node"><title>component/navigation</title>
<polygon fill="none" stroke="black" points="899.703,-328.315 899.703,-349.315 963.703,-349.315 963.703,-328.315 899.703,-328.315"/>
<text text-anchor="start" x="902.703" y="-335.115" font-family="Times,serif" font-size="14.00">navigation</text>
<polygon fill="none" stroke="black" points="898.703,-327.815 898.703,-350.815 964.703,-350.815 964.703,-327.815 898.703,-327.815"/>
</g>
<!-- component&#45;&gt;component/navigation -->
<g id="edge41" class="edge"><title>component&#45;&gt;component/navigation</title>
<path fill="none" stroke="black" stroke-width="3" d="M174.602,-205.818C302.199,-228.316 747.047,-306.755 888.303,-331.662"/>
<polygon fill="black" stroke="black" stroke-width="3" points="887.872,-335.14 898.328,-333.43 889.088,-328.247 887.872,-335.14"/>
</g>
<!-- component/route -->
<g id="node13" class="node"><title>component/route</title>
<polygon fill="none" stroke="black" points="398.006,-944.09 398.006,-965.09 432.006,-965.09 432.006,-944.09 398.006,-944.09"/>
<text text-anchor="start" x="401.006" y="-950.89" font-family="Times,serif" font-size="14.00">route</text>
<polygon fill="none" stroke="black" points="397.006,-943.59 397.006,-966.59 433.006,-966.59 433.006,-943.59 397.006,-943.59"/>
</g>
<!-- component&#45;&gt;component/route -->
<g id="edge46" class="edge"><title>component&#45;&gt;component/route</title>
<path fill="none" stroke="black" stroke-width="3" d="M146.738,-218.028C183.391,-318.733 360.5,-805.336 404.897,-927.316"/>
<polygon fill="black" stroke="black" stroke-width="3" points="401.725,-928.834 408.434,-937.033 408.303,-926.439 401.725,-928.834"/>
</g>
<!-- component/search -->
<g id="node14" class="node"><title>component/search</title>
<polygon fill="none" stroke="black" points="707.644,-888.964 707.644,-909.964 748.644,-909.964 748.644,-888.964 707.644,-888.964"/>
<text text-anchor="start" x="710.644" y="-895.764" font-family="Times,serif" font-size="14.00">search</text>
<polygon fill="none" stroke="black" points="706.144,-888.464 706.144,-911.464 749.144,-911.464 749.144,-888.464 706.144,-888.464"/>
</g>
<!-- component&#45;&gt;component/search -->
<g id="edge52" class="edge"><title>component&#45;&gt;component/search</title>
<path fill="none" stroke="black" stroke-width="3" d="M155.192,-217.743C235.364,-313.288 610.781,-760.692 705.764,-873.889"/>
<polygon fill="black" stroke="black" stroke-width="3" points="703.25,-876.338 712.359,-881.749 708.613,-871.838 703.25,-876.338"/>
</g>
<!-- component/stop -->
<g id="node15" class="node"><title>component/stop</title>
<polygon fill="none" stroke="black" points="249.548,-85.1264 249.548,-106.126 278.548,-106.126 278.548,-85.1264 249.548,-85.1264"/>
<text text-anchor="start" x="252.548" y="-91.9264" font-family="Times,serif" font-size="14.00">stop</text>
<polygon fill="none" stroke="black" points="248.048,-84.6264 248.048,-107.626 279.048,-107.626 279.048,-84.6264 248.048,-84.6264"/>
</g>
<!-- component&#45;&gt;component/stop -->
<g id="edge54" class="edge"><title>component&#45;&gt;component/stop</title>
<path fill="none" stroke="black" stroke-width="3" d="M161.585,-181.684C181.645,-164.851 211.743,-139.596 234.043,-120.884"/>
<polygon fill="black" stroke="black" stroke-width="3" points="236.463,-123.423 241.873,-114.314 231.963,-118.06 236.463,-123.423"/>
</g>
<!-- component/stop&#45;cards -->
<g id="node16" class="node"><title>component/stop&#45;cards</title>
<polygon fill="none" stroke="black" points="28.4884,-328.315 28.4884,-349.315 90.4884,-349.315 90.4884,-328.315 28.4884,-328.315"/>
<text text-anchor="start" x="31.4884" y="-335.115" font-family="Times,serif" font-size="14.00">stop&#45;cards</text>
<polygon fill="none" stroke="black" points="27.4884,-327.815 27.4884,-350.815 91.4884,-350.815 91.4884,-327.815 27.4884,-327.815"/>
</g>
<!-- component&#45;&gt;component/stop&#45;cards -->
<g id="edge56" class="edge"><title>component&#45;&gt;component/stop&#45;cards</title>
<path fill="none" stroke="black" stroke-width="3" d="M129.542,-217.978C115.666,-242.013 91.1514,-284.473 75.1131,-312.252"/>
<polygon fill="black" stroke="black" stroke-width="3" points="71.9956,-310.652 70.0266,-321.062 78.0578,-314.152 71.9956,-310.652"/>
</g>
<!-- component/summary -->
<g id="node17" class="node"><title>component/summary</title>
<polygon fill="none" stroke="black" points="698.644,-85.1264 698.644,-106.126 756.644,-106.126 756.644,-85.1264 698.644,-85.1264"/>
<text text-anchor="start" x="701.644" y="-91.9264" font-family="Times,serif" font-size="14.00">summary</text>
<polygon fill="none" stroke="black" points="697.644,-84.6264 697.644,-107.626 757.644,-107.626 757.644,-84.6264 697.644,-84.6264"/>
</g>
<!-- component&#45;&gt;component/summary -->
<g id="edge60" class="edge"><title>component&#45;&gt;component/summary</title>
<path fill="none" stroke="black" stroke-width="3" d="M174.639,-193.636C276.991,-175.589 578.197,-122.478 687.464,-103.211"/>
<polygon fill="black" stroke="black" stroke-width="3" points="688.186,-106.638 697.426,-101.455 686.97,-99.7443 688.186,-106.638"/>
</g>
<!-- component/trip -->
<g id="node18" class="node"><title>component/trip</title>
<polygon fill="none" stroke="black" points="564.185,-944.09 564.185,-965.09 589.185,-965.09 589.185,-944.09 564.185,-944.09"/>
<text text-anchor="start" x="567.185" y="-950.89" font-family="Times,serif" font-size="14.00">trip</text>
<polygon fill="none" stroke="black" points="562.685,-943.59 562.685,-966.59 589.685,-966.59 589.685,-943.59 562.685,-943.59"/>
</g>
<!-- component&#45;&gt;component/trip -->
<g id="edge63" class="edge"><title>component&#45;&gt;component/trip</title>
<path fill="none" stroke="black" stroke-width="3" d="M150.642,-218.028C208.901,-318.935 490.855,-807.294 560.572,-928.047"/>
<polygon fill="black" stroke="black" stroke-width="3" points="557.729,-930.123 565.76,-937.033 563.791,-926.623 557.729,-930.123"/>
</g>
<!-- component/util -->
<g id="node19" class="node"><title>component/util</title>
<polygon fill="none" stroke="black" points="564.185,-30 564.185,-51 589.185,-51 589.185,-30 564.185,-30"/>
<text text-anchor="start" x="567.185" y="-36.8" font-family="Times,serif" font-size="14.00">util</text>
<polygon fill="none" stroke="black" points="562.685,-29.5 562.685,-52.5 589.685,-52.5 589.685,-29.5 562.685,-29.5"/>
</g>
<!-- component&#45;&gt;component/util -->
<g id="edge65" class="edge"><title>component&#45;&gt;component/util</title>
<path fill="none" stroke="black" stroke-width="3" d="M174.663,-187.142C255.585,-157.689 456.66,-84.5035 539.56,-54.3304"/>
<polygon fill="black" stroke="black" stroke-width="3" points="540.868,-57.579 549.068,-50.8698 538.474,-51.0011 540.868,-57.579"/>
</g>
<!-- page -->
<g id="node2" class="node"><title>page</title>
<polygon fill="none" stroke="black" points="835.114,-785.36 835.114,-806.36 867.114,-806.36 867.114,-785.36 835.114,-785.36"/>
<text text-anchor="start" x="838.114" y="-792.16" font-family="Times,serif" font-size="14.00">page</text>
<polygon fill="none" stroke="black" points="834.114,-784.86 834.114,-807.86 868.114,-807.86 868.114,-784.86 834.114,-784.86"/>
</g>
<!-- page&#45;&gt;component/departure -->
<g id="edge10" class="edge"><title>page&#45;&gt;component/departure</title>
<path fill="none" stroke="#00d8ff" stroke-width="13" d="M823.864,-791.555C705.967,-770.767 239.451,-688.507 99.4285,-663.818"/>
<polygon fill="#00d8ff" stroke="#00d8ff" stroke-width="13" points="101.364,-652.609 89.5403,-662.074 97.4131,-675.013 101.364,-652.609"/>
<text text-anchor="middle" x="454.646" y="-731.487" font-family="Times,serif" font-size="14.00">13</text>
</g>
<!-- page&#45;&gt;component/documentation -->
<g id="edge11" class="edge"><title>page&#45;&gt;component/documentation</title>
<path fill="none" stroke="#00d8ff" stroke-width="13" d="M840.55,-778.063C782.291,-677.155 500.337,-188.796 430.62,-68.0434"/>
<polygon fill="#00d8ff" stroke="#00d8ff" stroke-width="13" points="440.283,-62.0296 425.432,-59.0568 420.581,-73.4047 440.283,-62.0296"/>
<text text-anchor="middle" x="628.585" y="-426.853" font-family="Times,serif" font-size="14.00">13</text>
</g>
<!-- page&#45;&gt;component/front&#45;page -->
<g id="edge1" class="edge"><title>page&#45;&gt;component/front&#45;page</title>
<path fill="none" stroke="#00d8ff" stroke-width="13" d="M824.109,-796.36C716.178,-796.36 315.253,-796.36 182.831,-796.36"/>
<polygon fill="#00d8ff" stroke="#00d8ff" stroke-width="13" points="182.675,-784.985 172.675,-796.36 182.675,-807.735 182.675,-784.985"/>
<text text-anchor="middle" x="496.47" y="-800.16" font-family="Times,serif" font-size="14.00">13</text>
</g>
<!-- page&#45;&gt;component/icon -->
<g id="edge8" class="edge"><title>page&#45;&gt;component/icon</title>
<path fill="none" stroke="#00d8ff" stroke-width="13" d="M823.953,-801.149C728.734,-817.939 409.93,-874.153 300.664,-893.419"/>
<polygon fill="#00d8ff" stroke="#00d8ff" stroke-width="13" points="298.632,-882.227 290.759,-895.166 302.582,-904.632 298.632,-882.227"/>
<text text-anchor="middle" x="555.309" y="-851.084" font-family="Times,serif" font-size="14.00">13</text>
</g>
<!-- page&#45;&gt;component/itinerary -->
<g id="edge5" class="edge"><title>page&#45;&gt;component/itinerary</title>
<path fill="none" stroke="#00d8ff" stroke-width="13" d="M861.649,-778.112C875.526,-754.077 900.04,-711.617 916.078,-683.838"/>
<polygon fill="#00d8ff" stroke="#00d8ff" stroke-width="13" points="926.016,-689.376 921.165,-675.028 906.314,-678.001 926.016,-689.376"/>
<text text-anchor="middle" x="881.864" y="-734.775" font-family="Times,serif" font-size="14.00">13</text>
</g>
<!-- page&#45;&gt;component/map -->
<g id="edge3" class="edge"><title>page&#45;&gt;component/map</title>
<path fill="none" stroke="#00d8ff" stroke-width="13" d="M857.742,-778.148C876.066,-727.804 927.501,-586.489 949.501,-526.043"/>
<polygon fill="#00d8ff" stroke="#00d8ff" stroke-width="13" points="960.281,-529.685 953.012,-516.398 938.903,-521.904 960.281,-529.685"/>
<text text-anchor="middle" x="896.622" y="-655.896" font-family="Times,serif" font-size="14.00">13</text>
</g>
<!-- page&#45;&gt;component/navigation -->
<g id="edge2" class="edge"><title>page&#45;&gt;component/navigation</title>
<path fill="none" stroke="#00d8ff" stroke-width="13" d="M854.323,-778.161C866.731,-707.788 911.629,-453.161 926.718,-367.59"/>
<polygon fill="#00d8ff" stroke="#00d8ff" stroke-width="13" points="937.951,-369.389 928.485,-357.566 915.546,-365.439 937.951,-369.389"/>
<text text-anchor="middle" x="883.52" y="-576.676" font-family="Times,serif" font-size="14.00">13</text>
</g>
<!-- page&#45;&gt;component/route -->
<g id="edge7" class="edge"><title>page&#45;&gt;component/route</title>
<path fill="none" stroke="#00d8ff" stroke-width="13" d="M823.833,-806.289C748.497,-833.71 537.503,-910.505 451.846,-941.682"/>
<polygon fill="#00d8ff" stroke="#00d8ff" stroke-width="13" points="447.783,-931.056 442.277,-945.165 455.564,-952.434 447.783,-931.056"/>
<text text-anchor="middle" x="630.839" y="-877.786" font-family="Times,serif" font-size="14.00">13</text>
</g>
<!-- page&#45;&gt;component/search -->
<g id="edge4" class="edge"><title>page&#45;&gt;component/search</title>
<path fill="none" stroke="#00d8ff" stroke-width="13" d="M829.607,-814.407C809.547,-831.239 779.449,-856.494 757.148,-875.207"/>
<polygon fill="#00d8ff" stroke="#00d8ff" stroke-width="13" points="749.667,-866.635 749.318,-881.777 764.291,-884.063 749.667,-866.635"/>
<text text-anchor="middle" x="786.378" y="-848.607" font-family="Times,serif" font-size="14.00">13</text>
</g>
<!-- page&#45;&gt;component/stop&#45;cards -->
<g id="edge9" class="edge"><title>page&#45;&gt;component/stop&#45;cards</title>
<path fill="none" stroke="#00d8ff" stroke-width="13" d="M823.864,-780.628C706.012,-712.585 239.807,-443.422 99.589,-362.467"/>
<polygon fill="#00d8ff" stroke="#00d8ff" stroke-width="13" points="105.18,-352.56 90.8317,-357.411 93.8044,-372.262 105.18,-352.56"/>
<text text-anchor="middle" x="454.727" y="-575.347" font-family="Times,serif" font-size="14.00">13</text>
</g>
<!-- page&#45;&gt;component/summary -->
<g id="edge12" class="edge"><title>page&#45;&gt;component/summary</title>
<path fill="none" stroke="#00d8ff" stroke-width="13" d="M847.938,-778.347C831.192,-683.376 753.146,-240.76 732.607,-124.277"/>
<polygon fill="#00d8ff" stroke="#00d8ff" stroke-width="13" points="743.794,-122.214 730.856,-114.342 721.39,-126.165 743.794,-122.214"/>
<text text-anchor="middle" x="783.273" y="-455.112" font-family="Times,serif" font-size="14.00">13</text>
</g>
<!-- page&#45;&gt;component/trip -->
<g id="edge13" class="edge"><title>page&#45;&gt;component/trip</title>
<path fill="none" stroke="#00d8ff" stroke-width="13" d="M824,-812.014C774.21,-840.761 668.202,-901.964 612.346,-934.213"/>
<polygon fill="#00d8ff" stroke="#00d8ff" stroke-width="13" points="606.475,-924.468 603.502,-939.319 617.85,-944.17 606.475,-924.468"/>
<text text-anchor="middle" x="711.173" y="-861.914" font-family="Times,serif" font-size="14.00">13</text>
</g>
<!-- page&#45;&gt;component/util -->
<g id="edge6" class="edge"><title>page&#45;&gt;component/util</title>
<path fill="none" stroke="#00d8ff" stroke-width="13" d="M844.454,-778.063C807.8,-677.358 630.691,-190.754 586.294,-68.7746"/>
<polygon fill="#00d8ff" stroke="#00d8ff" stroke-width="13" points="596.867,-64.5632 582.757,-59.0568 575.489,-72.3443 596.867,-64.5632"/>
<text text-anchor="middle" x="708.374" y="-427.219" font-family="Times,serif" font-size="14.00">13</text>
</g>
<!-- util -->
<g id="node3" class="node"><title>util</title>
<polygon fill="none" stroke="black" points="914.596,-105.045 914.596,-126.045 939.596,-126.045 939.596,-105.045 914.596,-105.045"/>
<text text-anchor="start" x="917.596" y="-111.845" font-family="Times,serif" font-size="14.00">util</text>
<polygon fill="none" stroke="black" points="913.096,-104.545 913.096,-127.545 940.096,-127.545 940.096,-104.545 913.096,-104.545"/>
</g>
<!-- component/departure&#45;&gt;component/documentation -->
<g id="edge15" class="edge"><title>component/departure&#45;&gt;component/documentation</title>
<path fill="none" stroke="#00d8ff" stroke-width="4" d="M69.9358,-638.68C120.426,-551.228 339.185,-172.326 399.536,-67.7957"/>
<polygon fill="#00d8ff" stroke="#00d8ff" stroke-width="4" points="402.589,-69.5068 404.558,-59.0965 396.527,-66.0067 402.589,-69.5068"/>
<text text-anchor="middle" x="231.236" y="-357.038" font-family="Times,serif" font-size="14.00">4</text>
</g>
<!-- component/departure&#45;&gt;component/icon -->
<g id="edge17" class="edge"><title>component/departure&#45;&gt;component/icon</title>
<path fill="none" stroke="#00d8ff" stroke-width="4" d="M74.826,-675.054C110.736,-717.85 200.362,-824.662 241.847,-874.102"/>
<polygon fill="#00d8ff" stroke="#00d8ff" stroke-width="4" points="239.202,-876.394 248.311,-881.805 244.564,-871.895 239.202,-876.394"/>
<text text-anchor="middle" x="154.837" y="-763.378" font-family="Times,serif" font-size="14.00">4</text>
</g>
<!-- component/departure&#45;&gt;component/stop -->
<g id="edge16" class="edge"><title>component/departure&#45;&gt;component/stop</title>
<path fill="none" stroke="#00d8ff" stroke-width="4" d="M66.0467,-638.756C95.6958,-557.296 217.323,-223.129 253.409,-123.982"/>
<polygon fill="#00d8ff" stroke="#00d8ff" stroke-width="4" points="256.78,-124.954 256.911,-114.36 250.202,-122.56 256.78,-124.954"/>
<text text-anchor="middle" x="156.228" y="-385.169" font-family="Times,serif" font-size="14.00">4</text>
</g>
<!-- component/disruption&#45;&gt;component/stop&#45;cards -->
<g id="edge20" class="edge"><title>component/disruption&#45;&gt;component/stop&#45;cards</title>
<path fill="none" stroke="#00d8ff" stroke-width="3" d="M819.593,-205.288C695.733,-227.128 242.338,-307.074 101.508,-331.906"/>
<polygon fill="#00d8ff" stroke="#00d8ff" stroke-width="3" points="100.773,-328.481 91.5329,-333.665 101.989,-335.375 100.773,-328.481"/>
<text text-anchor="middle" x="457.051" y="-272.397" font-family="Times,serif" font-size="14.00">3</text>
</g>
<!-- component/disruption&#45;&gt;component/util -->
<g id="edge19" class="edge"><title>component/disruption&#45;&gt;component/util</title>
<path fill="none" stroke="#00d8ff" stroke-width="3" d="M819.844,-181.676C768.489,-152.027 666.577,-93.1876 612.253,-61.8237"/>
<polygon fill="#00d8ff" stroke="#00d8ff" stroke-width="3" points="613.732,-58.6361 603.321,-56.6671 610.232,-64.6983 613.732,-58.6361"/>
<text text-anchor="middle" x="712.548" y="-125.55" font-family="Times,serif" font-size="14.00">3</text>
</g>
<!-- component/favourites&#45;&gt;component/departure -->
<g id="edge25" class="edge"><title>component/favourites&#45;&gt;component/departure</title>
<path fill="none" stroke="#00d8ff" stroke-width="5" d="M34.7106,-516.254C39.5354,-543.616 48.6992,-595.587 54.4288,-628.081"/>
<polygon fill="#00d8ff" stroke="#00d8ff" stroke-width="5" points="50.1839,-629.202 56.229,-638.29 58.801,-627.683 50.1839,-629.202"/>
<text text-anchor="middle" x="41.0697" y="-575.967" font-family="Times,serif" font-size="14.00">5</text>
</g>
<!-- component/favourites&#45;&gt;component/icon -->
<g id="edge24" class="edge"><title>component/favourites&#45;&gt;component/icon</title>
<path fill="none" stroke="#00d8ff" stroke-width="5" d="M41.9214,-516.096C78.8791,-580.108 203.816,-796.506 247.949,-872.946"/>
<polygon fill="#00d8ff" stroke="#00d8ff" stroke-width="5" points="244.366,-875.49 253.155,-881.963 251.944,-871.115 244.366,-875.49"/>
<text text-anchor="middle" x="141.435" y="-698.321" font-family="Times,serif" font-size="14.00">5</text>
</g>
<!-- component/favourites&#45;&gt;component/stop&#45;cards -->
<g id="edge26" class="edge"><title>component/favourites&#45;&gt;component/stop&#45;cards</title>
<path fill="none" stroke="#00d8ff" stroke-width="5" d="M34.7106,-479.837C39.5354,-452.474 48.6992,-400.503 54.4288,-368.009"/>
<polygon fill="#00d8ff" stroke="#00d8ff" stroke-width="5" points="58.801,-368.408 56.229,-357.8 50.1839,-366.888 58.801,-368.408"/>
<text text-anchor="middle" x="41.0697" y="-427.723" font-family="Times,serif" font-size="14.00">5</text>
</g>
<!-- component/favourites&#45;&gt;component/util -->
<g id="edge23" class="edge"><title>component/favourites&#45;&gt;component/util</title>
<path fill="none" stroke="#00d8ff" stroke-width="5" d="M53.1884,-479.846C138.348,-408.389 449.909,-146.958 547.056,-65.4422"/>
<polygon fill="#00d8ff" stroke="#00d8ff" stroke-width="5" points="549.883,-68.7815 554.731,-59.0022 544.258,-62.0786 549.883,-68.7815"/>
<text text-anchor="middle" x="296.622" y="-276.444" font-family="Times,serif" font-size="14.00">5</text>
</g>
<!-- component/front&#45;page&#45;&gt;component/favourites -->
<g id="edge28" class="edge"><title>component/front&#45;page&#45;&gt;component/favourites</title>
<path fill="none" stroke="#00d8ff" stroke-width="4" d="M133.449,-778.148C115.125,-727.804 63.6908,-586.489 41.6904,-526.043"/>
<polygon fill="#00d8ff" stroke="#00d8ff" stroke-width="4" points="44.889,-524.598 38.1798,-516.398 38.3111,-526.992 44.889,-524.598"/>
<text text-anchor="middle" x="91.0698" y="-640.896" font-family="Times,serif" font-size="14.00">4</text>
</g>
<!-- component/front&#45;page&#45;&gt;component/icon -->
<g id="edge29" class="edge"><title>component/front&#45;page&#45;&gt;component/icon</title>
<path fill="none" stroke="#00d8ff" stroke-width="4" d="M161.585,-814.407C181.645,-831.239 211.743,-856.494 234.043,-875.207"/>
<polygon fill="#00d8ff" stroke="#00d8ff" stroke-width="4" points="231.963,-878.03 241.873,-881.777 236.463,-872.668 231.963,-878.03"/>
<text text-anchor="middle" x="194.314" y="-848.607" font-family="Times,serif" font-size="14.00">4</text>
</g>
<!-- component/front&#45;page&#45;&gt;component/route -->
<g id="edge30" class="edge"><title>component/front&#45;page&#45;&gt;component/route</title>
<path fill="none" stroke="#00d8ff" stroke-width="4" d="M171.348,-814.414C222.702,-844.064 324.615,-902.903 378.939,-934.267"/>
<polygon fill="#00d8ff" stroke="#00d8ff" stroke-width="4" points="377.46,-937.454 387.87,-939.423 380.96,-931.392 377.46,-937.454"/>
<text text-anchor="middle" x="271.643" y="-863.14" font-family="Times,serif" font-size="14.00">4</text>
</g>
<!-- component/itinerary&#45;&gt;component/departure -->
<g id="edge36" class="edge"><title>component/itinerary&#45;&gt;component/departure</title>
<path fill="none" stroke="#00d8ff" stroke-width="5" d="M904.643,-656.775C778.844,-656.775 250.938,-656.775 99.9727,-656.775"/>
<polygon fill="#00d8ff" stroke="#00d8ff" stroke-width="5" points="99.7653,-652.4 89.7653,-656.775 99.7653,-661.15 99.7653,-652.4"/>
<text text-anchor="middle" x="498.808" y="-660.575" font-family="Times,serif" font-size="14.00">5</text>
</g>
<!-- component/itinerary&#45;&gt;component/icon -->
<g id="edge33" class="edge"><title>component/itinerary&#45;&gt;component/icon</title>
<path fill="none" stroke="#00d8ff" stroke-width="5" d="M904.683,-666.61C799.96,-704.726 420.713,-842.76 300.423,-886.542"/>
<polygon fill="#00d8ff" stroke="#00d8ff" stroke-width="5" points="298.805,-882.476 290.904,-890.007 301.797,-890.698 298.805,-882.476"/>
<text text-anchor="middle" x="599.053" y="-780.376" font-family="Times,serif" font-size="14.00">5</text>
</g>
<!-- component/itinerary&#45;&gt;component/map -->
<g id="edge34" class="edge"><title>component/itinerary&#45;&gt;component/map</title>
<path fill="none" stroke="#00d8ff" stroke-width="5" d="M934.914,-638.567C939.739,-611.204 948.902,-559.234 954.632,-526.739"/>
<polygon fill="#00d8ff" stroke="#00d8ff" stroke-width="5" points="959.004,-527.138 956.432,-516.53 950.387,-525.618 959.004,-527.138"/>
<text text-anchor="middle" x="941.273" y="-586.453" font-family="Times,serif" font-size="14.00">5</text>
</g>
<!-- component/itinerary&#45;&gt;component/util -->
<g id="edge35" class="edge"><title>component/itinerary&#45;&gt;component/util</title>
<path fill="none" stroke="#00d8ff" stroke-width="5" d="M921.256,-638.68C870.766,-551.228 652.006,-172.326 591.656,-67.7957"/>
<polygon fill="#00d8ff" stroke="#00d8ff" stroke-width="5" points="595.422,-65.5692 586.633,-59.0965 587.844,-69.9443 595.422,-65.5692"/>
<text text-anchor="middle" x="752.956" y="-357.038" font-family="Times,serif" font-size="14.00">5</text>
</g>
<!-- component/map&#45;&gt;component/icon -->
<g id="edge38" class="edge"><title>component/map&#45;&gt;component/icon</title>
<path fill="none" stroke="#00d8ff" stroke-width="4" d="M932.402,-513.801C823.759,-576.526 421.956,-808.507 299.322,-879.31"/>
<polygon fill="#00d8ff" stroke="#00d8ff" stroke-width="4" points="297.559,-876.286 290.649,-884.317 301.059,-882.348 297.559,-876.286"/>
<text text-anchor="middle" x="612.362" y="-700.355" font-family="Times,serif" font-size="14.00">4</text>
</g>
<!-- component/map&#45;&gt;component/route -->
<g id="edge39" class="edge"><title>component/map&#45;&gt;component/route</title>
<path fill="none" stroke="#00d8ff" stroke-width="4" d="M933.293,-516.264C840.5,-587.68 530.454,-847.781 439.959,-930.045"/>
<polygon fill="#00d8ff" stroke="#00d8ff" stroke-width="4" points="437.382,-927.66 432.377,-936.998 442.113,-932.819 437.382,-927.66"/>
<text text-anchor="middle" x="683.126" y="-726.955" font-family="Times,serif" font-size="14.00">4</text>
</g>
<!-- component/map&#45;&gt;component/stop&#45;cards -->
<g id="edge40" class="edge"><title>component/map&#45;&gt;component/stop&#45;cards</title>
<path fill="none" stroke="#00d8ff" stroke-width="4" d="M932.259,-493.208C803.504,-470.505 258.83,-374.464 101.939,-346.8"/>
<polygon fill="#00d8ff" stroke="#00d8ff" stroke-width="4" points="102.204,-343.293 91.7479,-345.003 100.988,-350.187 102.204,-343.293"/>
<text text-anchor="middle" x="513.599" y="-423.804" font-family="Times,serif" font-size="14.00">4</text>
</g>
<!-- component/navigation&#45;&gt;component/disruption -->
<g id="edge44" class="edge"><title>component/navigation&#45;&gt;component/disruption</title>
<path fill="none" stroke="#00d8ff" stroke-width="5" d="M921.168,-321.067C907.291,-297.032 882.777,-254.572 866.739,-226.793"/>
<polygon fill="#00d8ff" stroke="#00d8ff" stroke-width="5" points="870.441,-224.456 861.652,-217.983 862.863,-228.831 870.441,-224.456"/>
<text text-anchor="middle" x="890.453" y="-277.73" font-family="Times,serif" font-size="14.00">5</text>
</g>
<!-- component/navigation&#45;&gt;component/icon -->
<g id="edge42" class="edge"><title>component/navigation&#45;&gt;component/icon</title>
<path fill="none" stroke="#00d8ff" stroke-width="5" d="M910.229,-357.334C812.167,-439.618 406.82,-779.745 293.247,-875.044"/>
<polygon fill="#00d8ff" stroke="#00d8ff" stroke-width="5" points="290.126,-871.951 285.278,-881.73 295.75,-878.654 290.126,-871.951"/>
<text text-anchor="middle" x="598.238" y="-619.989" font-family="Times,serif" font-size="14.00">5</text>
</g>
<!-- component/navigation&#45;&gt;component/summary -->
<g id="edge45" class="edge"><title>component/navigation&#45;&gt;component/summary</title>
<path fill="none" stroke="#00d8ff" stroke-width="5" d="M916.366,-321.036C880.455,-278.24 790.83,-171.429 749.344,-121.988"/>
<polygon fill="#00d8ff" stroke="#00d8ff" stroke-width="5" points="752.66,-119.134 742.881,-114.285 745.957,-124.758 752.66,-119.134"/>
<text text-anchor="middle" x="829.355" y="-225.312" font-family="Times,serif" font-size="14.00">5</text>
</g>
<!-- component/navigation&#45;&gt;component/util -->
<g id="edge43" class="edge"><title>component/navigation&#45;&gt;component/util</title>
<path fill="none" stroke="#00d8ff" stroke-width="5" d="M909.999,-321.103C849.009,-269.927 675.991,-124.747 606.06,-66.0676"/>
<polygon fill="#00d8ff" stroke="#00d8ff" stroke-width="5" points="608.53,-62.429 598.057,-59.3526 602.905,-69.1319 608.53,-62.429"/>
<text text-anchor="middle" x="754.529" y="-197.385" font-family="Times,serif" font-size="14.00">5</text>
</g>
<!-- component/route&#45;&gt;component/departure -->
<g id="edge49" class="edge"><title>component/route&#45;&gt;component/departure</title>
<path fill="none" stroke="#00d8ff" stroke-width="6" d="M393.302,-936.878C332.312,-885.702 159.294,-740.522 89.3629,-681.843"/>
<polygon fill="#00d8ff" stroke="#00d8ff" stroke-width="6" points="92.3953,-677.534 81.3601,-675.128 85.646,-685.578 92.3953,-677.534"/>
<text text-anchor="middle" x="237.833" y="-813.161" font-family="Times,serif" font-size="14.00">6</text>
</g>
<!-- component/route&#45;&gt;component/icon -->
<g id="edge48" class="edge"><title>component/route&#45;&gt;component/icon</title>
<path fill="none" stroke="#00d8ff" stroke-width="6" d="M387.929,-945.235C363.451,-936.326 327.214,-923.137 300.16,-913.289"/>
<polygon fill="#00d8ff" stroke="#00d8ff" stroke-width="6" points="301.839,-908.314 290.646,-909.827 298.247,-918.181 301.839,-908.314"/>
<text text-anchor="middle" x="340.544" y="-933.062" font-family="Times,serif" font-size="14.00">6</text>
</g>
<!-- component/route&#45;&gt;component/map -->
<g id="edge50" class="edge"><title>component/route&#45;&gt;component/map</title>
<path fill="none" stroke="#00d8ff" stroke-width="6" d="M441.405,-936.872C534.198,-865.455 844.244,-605.355 934.739,-523.09"/>
<polygon fill="#00d8ff" stroke="#00d8ff" stroke-width="6" points="938.499,-526.766 942.321,-516.138 931.402,-519.027 938.499,-526.766"/>
<text text-anchor="middle" x="691.572" y="-733.781" font-family="Times,serif" font-size="14.00">6</text>
</g>
<!-- component/route&#45;&gt;component/trip -->
<g id="edge51" class="edge"><title>component/route&#45;&gt;component/trip</title>
<path fill="none" stroke="#00d8ff" stroke-width="6" d="M442.348,-955.09C468.825,-955.09 509.182,-955.09 538.657,-955.09"/>
<polygon fill="#00d8ff" stroke="#00d8ff" stroke-width="6" points="538.979,-960.34 548.979,-955.09 538.979,-949.84 538.979,-960.34"/>
<text text-anchor="middle" x="487.003" y="-958.89" font-family="Times,serif" font-size="14.00">6</text>
</g>
<!-- component/route&#45;&gt;component/util -->
<g id="edge47" class="edge"><title>component/route&#45;&gt;component/util</title>
<path fill="none" stroke="#00d8ff" stroke-width="6" d="M418.226,-936.831C438.333,-822.796 546.603,-208.771 571.208,-69.2258"/>
<polygon fill="#00d8ff" stroke="#00d8ff" stroke-width="6" points="576.392,-70.0626 572.958,-59.3028 566.051,-68.2392 576.392,-70.0626"/>
<text text-anchor="middle" x="491.217" y="-506.828" font-family="Times,serif" font-size="14.00">6</text>
</g>
<!-- component/search&#45;&gt;component/icon -->
<g id="edge53" class="edge"><title>component/search&#45;&gt;component/icon</title>
<path fill="none" stroke="#00d8ff" stroke-width="2" d="M700.345,-899.964C621.193,-899.964 391.48,-899.964 300.899,-899.964"/>
<polygon fill="#00d8ff" stroke="#00d8ff" stroke-width="2" points="300.812,-896.464 290.812,-899.964 300.812,-903.464 300.812,-896.464"/>
<text text-anchor="middle" x="497.122" y="-903.764" font-family="Times,serif" font-size="14.00">2</text>
</g>
<!-- component/stop&#45;&gt;component/documentation -->
<g id="edge55" class="edge"><title>component/stop&#45;&gt;component/documentation</title>
<path fill="none" stroke="#00d8ff" stroke-width="2" d="M290.626,-86.2709C309.92,-79.2484 336.521,-69.5664 360.172,-60.9581"/>
<polygon fill="#00d8ff" stroke="#00d8ff" stroke-width="2" points="361.553,-64.1801 369.753,-57.4709 359.159,-57.6022 361.553,-64.1801"/>
<text text-anchor="middle" x="321.899" y="-77.4145" font-family="Times,serif" font-size="14.00">2</text>
</g>
<!-- component/stop&#45;cards&#45;&gt;component/departure -->
<g id="edge57" class="edge"><title>component/stop&#45;cards&#45;&gt;component/departure</title>
<path fill="none" stroke="#00d8ff" stroke-width="4" d="M59.4884,-357.755C59.4884,-410.92 59.4884,-564.765 59.4884,-628.551"/>
<polygon fill="#00d8ff" stroke="#00d8ff" stroke-width="4" points="55.9885,-628.68 59.4884,-638.68 62.9885,-628.68 55.9885,-628.68"/>
<text text-anchor="middle" x="62.9884" y="-481.953" font-family="Times,serif" font-size="14.00">4</text>
</g>
<!-- component/stop&#45;cards&#45;&gt;component/icon -->
<g id="edge58" class="edge"><title>component/stop&#45;cards&#45;&gt;component/icon</title>
<path fill="none" stroke="#00d8ff" stroke-width="4" d="M66.0467,-357.334C95.6958,-438.794 217.323,-772.961 253.409,-872.109"/>
<polygon fill="#00d8ff" stroke="#00d8ff" stroke-width="4" points="250.202,-873.531 256.911,-881.73 256.78,-871.136 250.202,-873.531"/>
<text text-anchor="middle" x="156.228" y="-618.521" font-family="Times,serif" font-size="14.00">4</text>
</g>
<!-- component/stop&#45;cards&#45;&gt;component/util -->
<g id="edge59" class="edge"><title>component/stop&#45;cards&#45;&gt;component/util</title>
<path fill="none" stroke="#00d8ff" stroke-width="4" d="M91.0323,-321.103C181.985,-268.591 444.363,-117.108 540.41,-61.6547"/>
<polygon fill="#00d8ff" stroke="#00d8ff" stroke-width="4" points="542.264,-64.6258 549.174,-56.5946 538.764,-58.5636 542.264,-64.6258"/>
<text text-anchor="middle" x="312.221" y="-195.179" font-family="Times,serif" font-size="14.00">4</text>
</g>
<!-- component/summary&#45;&gt;component/departure -->
<g id="edge62" class="edge"><title>component/summary&#45;&gt;component/departure</title>
<path fill="none" stroke="#00d8ff" stroke-width="2" d="M706.17,-114.145C608.108,-196.429 202.76,-536.556 89.1872,-631.855"/>
<polygon fill="#00d8ff" stroke="#00d8ff" stroke-width="2" points="86.6289,-629.433 81.2182,-638.542 91.1284,-634.795 86.6289,-629.433"/>
<text text-anchor="middle" x="394.178" y="-376.8" font-family="Times,serif" font-size="14.00">2</text>
</g>
<!-- component/summary&#45;&gt;component/util -->
<g id="edge61" class="edge"><title>component/summary&#45;&gt;component/util</title>
<path fill="none" stroke="#00d8ff" stroke-width="2" d="M697.358,-85.1032C673.016,-76.2434 638.733,-63.7655 612.842,-54.342"/>
<polygon fill="#00d8ff" stroke="#00d8ff" stroke-width="2" points="613.962,-51.0251 603.368,-50.8938 611.568,-57.603 613.962,-51.0251"/>
<text text-anchor="middle" x="651.6" y="-73.5226" font-family="Times,serif" font-size="14.00">2</text>
</g>
<!-- component/trip&#45;&gt;component/icon -->
<g id="edge64" class="edge"><title>component/trip&#45;&gt;component/icon</title>
<path fill="none" stroke="#00d8ff" stroke-width="2" d="M548.988,-950.295C492.979,-940.419 364.685,-917.797 300.929,-906.555"/>
<polygon fill="#00d8ff" stroke="#00d8ff" stroke-width="2" points="301.361,-903.077 290.905,-904.788 300.146,-909.971 301.361,-903.077"/>
<text text-anchor="middle" x="421.459" y="-917.225" font-family="Times,serif" font-size="14.00">2</text>
</g>
<!-- component/util&#45;&gt;component/documentation -->
<g id="edge67" class="edge"><title>component/util&#45;&gt;component/documentation</title>
<path fill="none" stroke="#00d8ff" stroke-width="3" d="M548.843,-41C527.435,-41 496.953,-41 470.486,-41"/>
<polygon fill="#00d8ff" stroke="#00d8ff" stroke-width="3" points="470.188,-37.5001 460.188,-41 470.188,-44.5001 470.188,-37.5001"/>
<text text-anchor="middle" x="506.165" y="-44.8" font-family="Times,serif" font-size="14.00">3</text>
</g>
<!-- component/util&#45;&gt;component/icon -->
<g id="edge66" class="edge"><title>component/util&#45;&gt;component/icon</title>
<path fill="none" stroke="#00d8ff" stroke-width="3" d="M569.511,-59.3381C529.535,-169.17 321.928,-739.565 273.606,-872.328"/>
<polygon fill="#00d8ff" stroke="#00d8ff" stroke-width="3" points="270.291,-871.203 270.16,-881.797 276.869,-873.598 270.291,-871.203"/>
<text text-anchor="middle" x="418.059" y="-469.633" font-family="Times,serif" font-size="14.00">3</text>
</g>
</g>
</svg>
